<svg width="44" height="44" viewBox="0 0 44 44" fill="none" xmlns="http://www.w3.org/2000/svg">
<path d="M7.33301 7.33325H10.3133C11.3535 7.33325 11.8736 7.33325 12.2869 7.5612C12.4574 7.6552 12.6118 7.77575 12.7443 7.91831C13.0657 8.26401 13.1918 8.76857 13.4441 9.7777L13.777 11.1094C13.9623 11.8506 14.055 12.2212 14.198 12.5321C14.6945 13.6115 15.6831 14.3834 16.8506 14.6033C17.187 14.6666 17.569 14.6666 18.333 14.6666V14.6666" stroke="#111111" stroke-width="3.66667" stroke-linecap="round"/>
<path d="M33 31.1667H13.8433C13.5753 31.1667 13.4413 31.1667 13.3396 31.1554C12.2624 31.0348 11.5244 30.0109 11.7507 28.9508C11.772 28.8507 11.8144 28.7236 11.8991 28.4693V28.4693C11.9932 28.187 12.0403 28.0459 12.0923 27.9213C12.6245 26.646 13.8284 25.7783 15.2065 25.6767C15.3411 25.6667 15.4899 25.6667 15.7875 25.6667H25.6667" stroke="#111111" stroke-width="3.66667" stroke-linecap="round" stroke-linejoin="round"/>
<path d="M28.9002 25.6667H17.7725C15.9801 25.6667 14.4504 24.3709 14.1557 22.6029L13.3667 17.8688C13.0873 16.1926 14.3799 14.6667 16.0793 14.6667H33.6999C35.0628 14.6667 35.9492 16.101 35.3397 17.32L32.1798 23.6399C31.5587 24.8821 30.289 25.6667 28.9002 25.6667Z" fill="#111111" stroke="#111111" stroke-width="3.66667" stroke-linecap="round"/>
<circle cx="31.1663" cy="36.6666" r="1.83333" fill="#111111"/>
<circle cx="16.5003" cy="36.6666" r="1.83333" fill="#111111"/>
</svg>
