<svg width="106" height="32" viewBox="0 0 106 32" fill="none" xmlns="http://www.w3.org/2000/svg">
<path d="M20.4301 25.8349V31.2171H0V0.391435H5.76851V25.8349H20.4301Z" fill="#222222"/>
<path d="M16.5619 15.8043C16.5619 6.6055 23.4361 0 31.8485 0C40.2609 0 47.1351 6.6055 47.1351 15.8043C47.1351 25.0031 40.2609 31.6086 31.8485 31.6086C23.4361 31.6086 16.5619 25.0031 16.5619 15.8043ZM22.5708 15.7554C22.5708 21.8226 26.753 25.737 31.8485 25.737C36.944 25.737 41.1262 21.8226 41.1262 15.7554C41.1262 9.68807 36.944 5.87156 31.8485 5.87156C26.753 5.87156 22.5708 9.68807 22.5708 15.7554Z" fill="#222222"/>
<path d="M76.3819 16.4404V17.9083C76.3819 27.3027 69.0271 32 61.3357 32C52.9233 32 46.0492 25.3945 46.0492 16.1957C46.0492 6.99694 52.9233 0.391435 61.3357 0.391435C69.4116 0.391435 75.084 5.03975 76.2858 12.4281H69.9885C68.6906 8.56269 65.6621 6.263 61.3357 6.263C56.2402 6.263 52.058 10.0795 52.058 16.1468C52.058 22.2141 56.2402 26.1284 61.3357 26.1284C64.7007 26.1284 67.8734 24.8073 69.3155 21.8226H61.7684V16.4404H76.3819Z" fill="#222222"/>
<path d="M75.4269 16.1957C75.4269 6.99694 82.301 0.391435 90.7134 0.391435C99.1259 0.391435 106 6.99694 106 16.1957C106 25.3945 99.1259 32 90.7134 32C82.301 32 75.4269 25.3945 75.4269 16.1957ZM81.4357 16.1468C81.4357 22.2141 85.6179 26.1284 90.7134 26.1284C95.809 26.1284 99.9911 22.2141 99.9911 16.1468C99.9911 10.0795 95.809 6.263 90.7134 6.263C85.6179 6.263 81.4357 10.0795 81.4357 16.1468Z" fill="#222222"/>
</svg>
