<svg width="28" height="28" viewBox="0 0 28 28" fill="none" xmlns="http://www.w3.org/2000/svg">
<path d="M25.667 12.3327H15.667V2.33268C15.667 1.89065 15.4914 1.46673 15.1788 1.15417C14.8663 0.841611 14.4424 0.666016 14.0003 0.666016C13.5583 0.666016 13.1344 0.841611 12.8218 1.15417C12.5093 1.46673 12.3337 1.89065 12.3337 2.33268V12.3327H2.33366C1.89163 12.3327 1.46771 12.5083 1.15515 12.8208C0.842587 13.1334 0.666992 13.5573 0.666992 13.9993C0.666992 14.4414 0.842587 14.8653 1.15515 15.1779C1.46771 15.4904 1.89163 15.666 2.33366 15.666H12.3337V25.666C12.3337 26.108 12.5093 26.532 12.8218 26.8445C13.1344 27.1571 13.5583 27.3327 14.0003 27.3327C14.4424 27.3327 14.8663 27.1571 15.1788 26.8445C15.4914 26.532 15.667 26.108 15.667 25.666V15.666H25.667C26.109 15.666 26.5329 15.4904 26.8455 15.1779C27.1581 14.8653 27.3337 14.4414 27.3337 13.9993C27.3337 13.5573 27.1581 13.1334 26.8455 12.8208C26.5329 12.5083 26.109 12.3327 25.667 12.3327Z" fill="white"/>
</svg>
