<svg width="20" height="20" viewBox="0 0 20 20" fill="none" xmlns="http://www.w3.org/2000/svg">
<path d="M17.0708 0.571909L9.99973 7.64298L2.92867 0.57191C2.61611 0.259349 2.19218 0.083755 1.75016 0.0837553C1.30813 0.0837549 0.884205 0.25935 0.571645 0.57191C0.259084 0.88447 0.0834897 1.30839 0.08349 1.75042C0.0834897 2.19245 0.259084 2.61637 0.571644 2.92893L7.64271 10L0.571644 17.0711C0.259084 17.3836 0.0834897 17.8076 0.08349 18.2496C0.0834897 18.6916 0.259084 19.1155 0.571645 19.4281C0.884205 19.7407 1.30813 19.9162 1.75016 19.9162C2.19218 19.9162 2.61611 19.7407 2.92867 19.4281L9.99973 12.357L17.0708 19.4281C17.3834 19.7407 17.8073 19.9162 18.2493 19.9162C18.6913 19.9162 19.1153 19.7407 19.4278 19.4281C19.7404 19.1155 19.916 18.6916 19.916 18.2496C19.916 17.8076 19.7404 17.3836 19.4278 17.0711L12.3568 10L19.4278 2.92893C19.7404 2.61637 19.916 2.19245 19.916 1.75042C19.916 1.30839 19.7404 0.88447 19.4278 0.57191C19.1153 0.25935 18.6913 0.0837544 18.2493 0.0837537C17.8073 0.0837537 17.3834 0.25935 17.0708 0.571909Z" fill="white"/>
</svg>
